#!OML:ASF F:\VICON\USERDATA\INSTALL\rory3\rory3.ASF
:FULLY-SPECIFIED
:DEGREES
269
root 0.912093 17.9323 20.2997 -2.44003 -4.9317 -2.34361
lowerback 9.57541 2.50192 2.24137
upperback 0.723344 3.59776 0.680117
thorax -4.51646 1.74022 -1.02645
lowerneck -16.1413 -3.15461 -1.50686
upperneck 20.8903 -4.22397 0.970513
head 9.2965 -1.98192 0.0486091
rclavicle -2.07326e-015 8.19987e-016
rhumerus -23.1008 -16.2309 -81.8409
rradius 31.5341
rwrist 1.36829
rhand -18.4979 21.4227
rfingers 7.12502
rthumb 7.78977 -8.41382
lclavicle -2.07326e-015 8.19987e-016
lhumerus -34.9892 8.84701 80.0633
lradius 18.3069
lwrist 0.917477
lhand -24.8306 27.1931
lfingers 7.12502
lthumb 1.67516 57.1663
rfemur -1.11647 1.04133 24.5922
rtibia 58.301
rfoot 7.99588 0.561247
rtoes 11.4865
lfemur -18.7051 0.0754699 -21.8905
ltibia 27.659
lfoot -4.20725 -2.90731
ltoes -0.0758882
270
root 0.931288 17.9458 20.4703 -2.59422 -4.72856 -1.63951
lowerback 9.57851 2.40105 1.5803
upperback 0.782867 3.38504 0.533152
thorax -4.49162 1.64737 -0.780854
lowerneck -16.0256 -3.0994 -1.64529
upperneck 20.8634 -4.10433 0.938576
head 9.26671 -1.94178 0.0778942
rclavicle -5.25366e-014 -1.87603e-014
rhumerus -23.0928 -16.0857 -81.89
rradius 30.7891
rwrist 1.46286
rhand -18.3234 21.5655
rfingers 7.12502
rthumb 7.95824 -8.26466
lclavicle -5.25366e-014 -1.87603e-014
lhumerus -34.6558 8.07303 80.5339
lradius 18.6686
lwrist 1.55121
lhand -25.8707 22.2814
lfingers 7.12502
lthumb 0.670647 52.2601
rfemur -2.61765 0.596917 23.6156
rtibia 60.6939
rfoot 6.80937 -0.800523
rtoes 10.7206
lfemur -17.9165 0.0662635 -22.8223
ltibia 27.5255
lfoot -4.46515 -2.7833
ltoes 0.809466
271
root 0.947174 17.9579 20.6424 -2.58263 -4.59771 -1.44239
lowerback 9.47931 2.32474 1.40146
upperback 0.839683 3.26126 0.520918
thorax -4.38887 1.591 -0.671365
lowerneck -16.2298 -3.06584 -1.6426
upperneck 20.9477 -4.02014 0.785577
head 9.32901 -1.91769 0.0317527
rclavicle -1.58251e-014 -3.62782e-015
rhumerus -22.9806 -16.1848 -81.8856
rradius 30.0876
rwrist 1.76957
rhand -18.1516 21.9314
rfingers 7.12502
rthumb 8.12402 -7.89245
lclavicle -1.58251e-014 -3.62782e-015
lhumerus -34.2202 7.45888 80.9076
lradius 18.6407
lwrist 0.89886
lhand -26.4974 21.4505
lfingers 7.12502
lthumb 0.0653839 51.4303
rfemur -4.24427 0.14438 23.2536
rtibia 62.8303
rfoot 5.67164 -2.77806
rtoes 9.82851
lfemur -17.2192 -0.0352268 -23.1228
ltibia 27.4549
lfoot -5.34584 -2.4216
ltoes 0.120301
272
root 0.955204 17.9622 20.8113 -2.59715 -4.56471 -1.26881
lowerback 9.54112 2.26534 1.10351
upperback 0.775381 3.1524 0.510476
thorax -4.50797 1.54124 -0.50621
lowerneck -16.2159 -2.99768 -1.64292
upperneck 20.9854 -3.93432 0.818754
head 9.33923 -1.87404 0.0540993
rclavicle 4.08161e-014 -4.32357e-015
rhumerus -23.0338 -16.4301 -81.88
rradius 29.3263
rwrist 2.35468
rhand -18.0059 22.106
rfingers 7.12502
rthumb 8.26465 -7.71233
lclavicle 4.08161e-014 -4.32357e-015
lhumerus -34.0035 6.43809 81.3548
lradius 18.6694
lwrist 1.88134
lhand -27.2571 19.7528
lfingers 7.12502
lthumb -0.668421 49.7314
rfemur -5.75107 -0.204881 23.0057
rtibia 64.7202
rfoot 4.53489 -4.70181
rtoes 8.73726
lfemur -16.4683 -0.0137716 -23.3806
ltibia 27.344
lfoot -6.14712 -2.17278
ltoes -1.00364
273
root 0.960359 17.9724 20.9882 -2.94606 -4.4898 -1.15213
lowerback 9.70453 2.18406 0.860138
upperback 0.858384 3.02074 0.540531
thorax -4.52864 1.48095 -0.326574
lowerneck -16.1219 -2.93653 -1.63604
upperneck 21.0575 -3.84529 0.781764
head 9.34487 -1.83657 0.0525701
rclavicle -5.32525e-014 8.29926e-015
rhumerus -23.1159 -16.835 -81.813
rradius 28.5366
rwrist 3.37291
rhand -18.0742 22.3895
rfingers 7.12502
rthumb 8.19874 -7.43142
lclavicle -5.32525e-014 8.29926e-015
lhumerus -33.6575 5.67525 81.6952
lradius 18.7643
lwrist 3.05995
lhand -27.4467 20.1807
lfingers 7.12502
lthumb -0.85149 50.1587
rfemur -6.78847 -0.577414 22.8482
rtibia 66.2759
rfoot 3.36649 -5.96362
rtoes 8.40813
lfemur -15.3975 0.191194 -23.5997
ltibia 27.2411
lfoot -6.47659 -2.2946
ltoes 0.489638
274
root 0.965791 17.9893 21.1678 -3.33867 -4.33453 -1.09558
lowerback 9.87532 2.07328 0.684981
upperback 0.968909 2.85882 0.620132
thorax -4.52275 1.40498 -0.128575
lowerneck -15.966 -2.85662 -1.54196
upperneck 21.0381 -3.69711 0.513012
head 9.29971 -1.79129 -0.0336711
rclavicle -2.43822e-014 1.0138e-014
rhumerus -23.2784 -16.8906 -81.7429
rradius 27.9916
rwrist 3.95661
rhand -17.8847 23.0809
rfingers 7.12502
rthumb 8.38157 -6.73284
lclavicle -2.43822e-014 1.0138e-014
lhumerus -33.2072 5.31727 81.8243
lradius 19.0113
lwrist 2.88506
lhand -26.3183 23.0766
lfingers 7.12502
lthumb 0.238316 53.0562
rfemur -7.69787 -1.0282 22.733
rtibia 67.5807
rfoot 1.68102 -6.89225
rtoes 7.33393
lfemur -14.3175 0.286095 -23.7135
ltibia 27.1267
lfoot -6.80411 -2.45442
ltoes 3.94687
275
root 0.978465 18.005 21.3392 -3.47263 -4.13421 -1.02696
lowerback 9.90751 1.94071 0.627984
upperback 0.947372 2.67774 0.633437
thorax -4.56723 1.31638 -0.0600121
lowerneck -15.6852 -2.75877 -1.52126
upperneck 21.0192 -3.54495 0.404293
head 9.23699 -1.73249 -0.0506606
rclavicle 1.19053e-014 -6.85807e-015
rhumerus -23.5342 -17.3095 -81.6028
rradius 27.4634
rwrist 4.83031
rhand -17.4034 23.5703
rfingers 7.12502
rthumb 8.84604 -6.22424
lclavicle 1.19053e-014 -6.85807e-015
lhumerus -33.0642 5.0796 81.8033
lradius 19.9629
lwrist 1.95862
lhand -23.9254 28.4778
lfingers 7.12502
lthumb 2.54937 58.4423
rfemur -8.87908 -1.54749 22.5551
rtibia 68.6901
rfoot -0.774331 -7.80333
rtoes 0.932921
lfemur -13.5207 0.304976 -23.8634
ltibia 26.9425
lfoot -7.25192 -2.56376
ltoes 6.31796
276
root 0.994718 18.0147 21.4999 -3.46554 -3.91134 -1.07815
lowerback 9.98196 1.80239 0.769479
upperback 0.851467 2.51185 0.637885
thorax -4.70355 1.2307 -0.116689
lowerneck -15.5686 -2.70655 -1.46247
upperneck 21.1027 -3.46267 0.286273
head 9.24011 -1.70296 -0.0894202
rclavicle -4.6497e-015 1.8487e-014
rhumerus -23.9003 -17.6123 -81.4729
rradius 27.0779
rwrist 5.39139
rhand -17.1791 24.1613
rfingers 7.12502
rthumb 9.06252 -5.62397
lclavicle -4.6497e-015 1.8487e-014
lhumerus -32.9851 4.6006 81.9768
lradius 20.1574
lwrist 3.77709
lhand -26.3853 22.7748
lfingers 7.12502
lthumb 0.173603 52.7544
rfemur -10.2721 -2.01403 22.5438
rtibia 69.6304
rfoot -1.28317 -8.38378
rtoes 0.768662
lfemur -12.838 0.265577 -23.9199
ltibia 26.7269
lfoot -7.76547 -2.5874
ltoes 7.01263
277
root 1.0026 18.0257 21.6578 -3.5019 -3.67424 -1.03777
lowerback 10.1642 1.68457 0.713456
upperback 0.745948 2.35297 0.647208
thorax -4.91918 1.15189 -0.0615498
lowerneck -15.7048 -2.68394 -1.56817
upperneck 21.4743 -3.42563 0.366862
head 9.3982 -1.68358 -0.0447327
rclavicle -1.11319e-014 -4.96962e-015
rhumerus -24.3477 -18.1755 -81.256
rradius 26.7903
rwrist 6.1863
rhand -17.0159 24.1297
rfingers 7.12502
rthumb 9.22 -5.64875
lclavicle -1.11319e-014 -4.96962e-015
lhumerus -32.7536 4.55255 81.8865
lradius 20.4314
lwrist 3.86629
lhand -26.3646 21.5187
lfingers 7.12502
lthumb 0.193563 51.4984
rfemur -11.6609 -2.37976 22.5184
rtibia 70.4274
rfoot -1.61807 -8.82732
rtoes 1.67511
lfemur -12.1313 0.200952 -24.0311
ltibia 26.5431
lfoot -8.22731 -2.58072
ltoes 7.46468
